<svg width="109" height="44" viewBox="0 0 109 44" fill="none" xmlns="http://www.w3.org/2000/svg">
<rect width="109" height="44" rx="12" fill="white"/>
<path d="M22.002 10C20.2305 10 18.5261 10.3783 16.934 11.1232C14.8946 12.0768 13.1645 13.5823 11.933 15.4759C10.668 17.4207 10 19.6768 10 22C10 24.3232 10.668 26.5793 11.933 28.5241C13.1645 30.4177 14.8946 31.9232 16.934 32.8768L17.2374 33.0187V30.4394L17.131 30.3783C14.1557 28.6443 12.3054 25.4325 12.3054 22C12.3054 18.5675 14.1537 15.3557 17.131 13.6197C18.603 12.7606 20.2877 12.3054 22 12.3054C27.3458 12.3054 31.6966 16.6542 31.6966 22C31.6966 26.9517 28.0414 31.0483 23.1566 31.6256V28.7527C25.4956 28.2187 27.1744 26.1241 27.1744 23.7084V15.7852H25.1251L22.002 18.9103L18.8768 15.7852H16.8256V23.7084C16.8256 25.2946 17.5409 26.7724 18.7862 27.7616C18.8217 27.7892 18.8591 27.8187 18.8966 27.8463C19.4719 28.2798 20.1438 28.5911 20.8453 28.7507V33.9468L21.0424 33.9626C21.3616 33.9882 21.6828 34 21.998 34C22.3133 34 22.6345 33.9862 22.9557 33.9626C25.9527 33.7261 28.735 32.3744 30.7921 30.1576C32.8611 27.9291 34 25.0325 34 21.998C34.0039 15.3833 28.6187 10 22.002 10ZM22.002 26.5773C21.7044 26.5773 21.4108 26.532 21.1271 26.4394C20.2089 26.1458 19.4837 25.3872 19.2335 24.4591C19.1665 24.2148 19.133 23.9645 19.133 23.7104V19.3084L20.9773 21.1507H23.0246L24.867 19.3103V23.7104C24.867 24.9596 24.067 26.0571 22.8768 26.4394C22.5931 26.5301 22.2995 26.5773 22.002 26.5773Z" fill="#41E088"/>
<path d="M51.7498 16.333V28.2921H49.7247V19.8003L46.0812 28.2921H44.6507L41.0251 19.835V28.2921H39V16.333H41.6391L45.4008 25.1201L49.1464 16.333H51.7498Z" fill="#41E088"/>
<path d="M62.166 24.616H54.9827C55.2548 25.8993 56.2933 26.7472 57.6557 26.7472C58.6602 26.7472 59.5285 26.2787 59.9708 25.6041H62.0817C61.3835 27.3377 59.6824 28.499 57.6217 28.499C54.9324 28.499 52.9414 26.5064 52.9414 23.8721C52.9414 21.2378 54.9324 19.2451 57.5715 19.2451C60.2268 19.2451 62.2178 21.2378 62.2178 23.8902C62.2162 24.0799 62.2 24.4082 62.166 24.616ZM54.9989 23.0225H60.1571C59.8509 21.8085 58.8287 20.9953 57.5699 20.9953C56.3111 20.9936 55.3229 21.8085 54.9989 23.0225Z" fill="#41E088"/>
<path d="M72.89 26.4161V28.2883H72.3457C71.1209 28.2883 70.3547 27.7687 70.1165 26.7971C69.4183 27.8363 68.3118 28.4961 66.985 28.4961C64.5338 28.4961 62.7129 26.5035 62.7129 23.8692C62.7129 21.2349 64.5338 19.2422 66.985 19.2422C68.2616 19.2422 69.334 19.8493 70.0323 20.8192V15.8096H71.9391V25.6012C71.9391 26.1043 72.229 26.4161 72.7394 26.4161H72.89ZM70.0306 23.8675C70.0306 22.3071 68.8901 21.1112 67.3576 21.1112C65.8088 21.1112 64.6683 22.3071 64.6683 23.8675C64.6683 25.428 65.8088 26.6239 67.3576 26.6239C68.8901 26.6239 70.0306 25.428 70.0306 23.8675Z" fill="#41E088"/>
<path d="M73.4355 16.7305C73.4355 16.0196 73.9637 15.5 74.6441 15.5C75.3423 15.5 75.8705 16.0196 75.8705 16.7305C75.8705 17.4234 75.3423 17.9611 74.6441 17.9611C73.9621 17.9611 73.4355 17.4234 73.4355 16.7305ZM73.6899 19.4506H75.5967V28.2905H73.6899V19.4506Z" fill="#41E088"/>
<path d="M88.8916 21.7235V28.292H87.1728V26.2812C86.2882 27.7196 84.8237 28.4998 82.9347 28.4998C79.4289 28.4998 76.7559 25.8308 76.7559 22.3124C76.7559 18.7939 79.4289 16.125 82.9347 16.125C85.658 16.125 87.9228 17.7366 88.6373 20.008H86.3741C85.7099 18.8649 84.4511 18.1193 82.9363 18.1193C80.6213 18.1193 78.8506 19.9222 78.8506 22.314C78.8506 24.7059 80.6213 26.5088 82.9363 26.5088C84.8772 26.5088 86.306 25.3129 86.7321 23.5792H83.3446V21.7235H88.8916Z" fill="black"/>
<path d="M89.707 23.8691C89.707 21.2348 91.6981 19.2422 94.3533 19.2422C96.9924 19.2422 98.9996 21.2348 98.9996 23.8691C98.9996 26.5034 96.9908 28.4961 94.3533 28.4961C91.6997 28.4977 89.707 26.5051 89.707 23.8691ZM97.0264 23.8691C97.0264 22.3087 95.8859 21.1128 94.3533 21.1128C92.8208 21.1128 91.6641 22.3087 91.6641 23.8691C91.6641 25.4296 92.8208 26.6255 94.3533 26.6255C95.8859 26.6255 97.0264 25.4296 97.0264 23.8691Z" fill="black"/>
</svg>
